<svg xmlns="http://www.w3.org/2000/svg" viewBox="0 0 512 512" width="512" height="512">
  <rect width="512" height="512" fill="#000000"/>
  <circle cx="256" cy="256" r="240" fill="none" stroke="#4a7c59" stroke-width="6"/>
  <!-- Flame -->
  <path d="M256 120 C216 172 184 200 192 240 C196 264 212 280 232 284 C222 260 226 240 240 228 C240 252 248 272 256 284 C264 272 272 252 272 228 C286 240 290 260 280 284 C300 280 316 264 320 240 C328 200 296 172 256 120Z" fill="#4a7c59"/>
  <path d="M256 180 C238 210 234 234 242 260 C246 273 250 280 256 284 C262 280 266 273 270 260 C278 234 274 210 256 180Z" fill="#2a4a35"/>
  <!-- Tree -->
  <path d="M210 390 L230 340 L218 340 L240 300 L228 300 L256 258 L284 300 L272 300 L294 340 L282 340 L302 390Z" fill="none" stroke="#4a7c59" stroke-width="6" stroke-linejoin="round"/>
</svg>
